<svg width="30" height="30" viewBox="0 0 30 30" fill="none" xmlns="http://www.w3.org/2000/svg">
<path d="M1.87506 0C1.37777 0 0.900835 0.185924 0.549193 0.51687C0.197551 0.847817 0 1.29668 0 1.76471C0 2.23274 0.197551 2.68159 0.549193 3.01254C0.900835 3.34349 1.37777 3.52941 1.87506 3.52941H4.16264L4.73453 5.68588C4.74021 5.71071 4.74647 5.73542 4.75328 5.76L7.29962 15.3424L5.62519 16.9165C3.26261 19.14 4.93516 22.9412 8.27653 22.9412H24.3758C24.8731 22.9412 25.35 22.7553 25.7017 22.4243C26.0533 22.0934 26.2509 21.6445 26.2509 21.1765C26.2509 20.7084 26.0533 20.2596 25.7017 19.9286C25.35 19.5977 24.8731 19.4118 24.3758 19.4118H8.27653L10.1516 17.6471H22.5008C22.8489 17.6469 23.1901 17.5555 23.4861 17.3831C23.7822 17.2108 24.0214 16.9643 24.1771 16.6712L29.8022 6.08294C29.9451 5.81396 30.0125 5.5151 29.9981 5.21472C29.9837 4.91433 29.888 4.62238 29.7201 4.36658C29.5522 4.11077 29.3176 3.89959 29.0386 3.75308C28.7596 3.60656 28.4454 3.52957 28.1259 3.52941H8.02527L7.444 1.33588C7.34242 0.954271 7.10827 0.615545 6.77874 0.373509C6.44921 0.131474 6.04319 1.03419e-05 5.62519 0H1.87506ZM26.2509 27.3529C26.2509 28.055 25.9546 28.7283 25.4271 29.2247C24.8996 29.7211 24.1842 30 23.4383 30C22.6923 30 21.9769 29.7211 21.4495 29.2247C20.922 28.7283 20.6257 28.055 20.6257 27.3529C20.6257 26.6509 20.922 25.9776 21.4495 25.4812C21.9769 24.9848 22.6923 24.7059 23.4383 24.7059C24.1842 24.7059 24.8996 24.9848 25.4271 25.4812C25.9546 25.9776 26.2509 26.6509 26.2509 27.3529ZM8.43778 30C9.18373 30 9.89912 29.7211 10.4266 29.2247C10.954 28.7283 11.2504 28.055 11.2504 27.3529C11.2504 26.6509 10.954 25.9776 10.4266 25.4812C9.89912 24.9848 9.18373 24.7059 8.43778 24.7059C7.69184 24.7059 6.97644 24.9848 6.44898 25.4812C5.92151 25.9776 5.62519 26.6509 5.62519 27.3529C5.62519 28.055 5.92151 28.7283 6.44898 29.2247C6.97644 29.7211 7.69184 30 8.43778 30V30Z" fill="white"/>
</svg>
