<svg width="30" height="30" viewBox="0 0 30 30" fill="none" xmlns="http://www.w3.org/2000/svg">
<path d="M16.3277 0.548982C15.9755 0.197469 15.4979 0 15 0C14.5021 0 14.0245 0.197469 13.6723 0.548982L0.527144 13.6742C0.185072 14.0278 -0.00420762 14.5014 7.0989e-05 14.9931C0.0043496 15.4847 0.201845 15.955 0.55002 16.3026C0.898195 16.6502 1.36919 16.8474 1.86157 16.8517C2.35394 16.856 2.8283 16.667 3.18247 16.3254L3.73269 15.7761V28.125C3.73269 28.6223 3.93054 29.0992 4.28271 29.4508C4.63488 29.8025 5.11253 30 5.61058 30H9.36635C9.86439 30 10.342 29.8025 10.6942 29.4508C11.0464 29.0992 11.2442 28.6223 11.2442 28.125V24.3749C11.2442 23.8776 11.4421 23.4007 11.7943 23.0491C12.1464 22.6974 12.6241 22.4999 13.1221 22.4999H16.8779C17.3759 22.4999 17.8536 22.6974 18.2057 23.0491C18.5579 23.4007 18.7558 23.8776 18.7558 24.3749V28.125C18.7558 28.6223 18.9536 29.0992 19.3058 29.4508C19.658 29.8025 20.1356 30 20.6337 30H24.3894C24.8875 30 25.3651 29.8025 25.7173 29.4508C26.0695 29.0992 26.2673 28.6223 26.2673 28.125V15.7761L26.8175 16.3254C27.1717 16.667 27.6461 16.856 28.1384 16.8517C28.6308 16.8474 29.1018 16.6502 29.45 16.3026C29.7982 15.955 29.9957 15.4847 29.9999 14.9931C30.0042 14.5014 29.8149 14.0278 29.4729 13.6742L16.3277 0.548982V0.548982Z" fill="white"/>
</svg>
