<svg width="30" height="30" viewBox="0 0 30 30" fill="none" xmlns="http://www.w3.org/2000/svg">
<path fill-rule="evenodd" clip-rule="evenodd" d="M15 30C18.9782 30 22.7936 28.4196 25.6066 25.6066C28.4196 22.7936 30 18.9782 30 15C30 11.0218 28.4196 7.20644 25.6066 4.3934C22.7936 1.58035 18.9782 0 15 0C11.0218 0 7.20644 1.58035 4.3934 4.3934C1.58035 7.20644 0 11.0218 0 15C0 18.9782 1.58035 22.7936 4.3934 25.6066C7.20644 28.4196 11.0218 30 15 30ZM16.875 5.625C16.875 5.12772 16.6775 4.65081 16.3258 4.29918C15.9742 3.94754 15.4973 3.75 15 3.75C14.5027 3.75 14.0258 3.94754 13.6742 4.29918C13.3225 4.65081 13.125 5.12772 13.125 5.625V5.7975C12.005 5.99687 10.9364 6.41896 9.9825 7.03875C8.62875 7.93875 7.5 9.39188 7.5 11.25C7.5 13.1063 8.62875 14.5594 9.9825 15.4613C10.8825 16.0613 11.9588 16.4831 13.125 16.7025V20.3419C12.3919 20.1038 11.85 19.7475 11.5444 19.3969C11.3858 19.2022 11.1897 19.0414 10.9677 18.924C10.7458 18.8066 10.5025 18.7349 10.2523 18.7133C10.0022 18.6917 9.75022 18.7205 9.51142 18.7981C9.27262 18.8757 9.05183 19.0005 8.86217 19.165C8.6725 19.3296 8.51782 19.5306 8.4073 19.756C8.29677 19.9815 8.23265 20.2268 8.21875 20.4775C8.20485 20.7283 8.24145 20.9792 8.32637 21.2155C8.41129 21.4518 8.54281 21.6686 8.71312 21.8531C9.76687 23.07 11.3625 23.8706 13.125 24.2025V24.375C13.125 24.8723 13.3225 25.3492 13.6742 25.7008C14.0258 26.0525 14.5027 26.25 15 26.25C15.4973 26.25 15.9742 26.0525 16.3258 25.7008C16.6775 25.3492 16.875 24.8723 16.875 24.375V24.2025C17.995 24.0031 19.0636 23.581 20.0175 22.9613C21.3712 22.0613 22.5 20.6081 22.5 18.75C22.5 16.8937 21.3712 15.4406 20.0175 14.5387C19.0636 13.919 17.995 13.4969 16.875 13.2975V9.65812C17.6081 9.89625 18.15 10.2525 18.4556 10.6031C18.6157 10.7931 18.812 10.9493 19.033 11.0628C19.254 11.1763 19.4953 11.2447 19.743 11.2641C19.9907 11.2834 20.2398 11.2534 20.4757 11.1757C20.7117 11.098 20.9299 10.9742 21.1176 10.8115C21.3053 10.6487 21.4588 10.4503 21.5691 10.2277C21.6795 10.0052 21.7445 9.76289 21.7605 9.51498C21.7764 9.26706 21.7429 9.01844 21.6619 8.78358C21.5809 8.54872 21.4541 8.33229 21.2887 8.14687C20.2331 6.93 18.6394 6.12938 16.875 5.7975V5.625Z" fill="white"/>
</svg>
