<svg width="30" height="30" viewBox="0 0 30 30" fill="none" xmlns="http://www.w3.org/2000/svg">
<path fill-rule="evenodd" clip-rule="evenodd" d="M11.2586 3.75414C9.26799 3.75414 7.35887 4.54489 5.95127 5.95242C4.54367 7.35996 3.75288 9.26899 3.75288 11.2595C3.75288 13.2501 4.54367 15.1591 5.95127 16.5667C7.35887 17.9742 9.26799 18.7649 11.2586 18.7649C13.2493 18.7649 15.1584 17.9742 16.566 16.5667C17.9736 15.1591 18.7644 13.2501 18.7644 11.2595C18.7644 9.26899 17.9736 7.35996 16.566 5.95242C15.1584 4.54489 13.2493 3.75414 11.2586 3.75414ZM2.12904e-07 11.2595C-0.000225904 9.48771 0.417775 7.74085 1.22001 6.16101C2.02224 4.58118 3.18605 3.213 4.61679 2.16773C6.04752 1.12247 7.70478 0.429644 9.45378 0.145604C11.2028 -0.138437 12.9941 -0.00567126 14.6821 0.533102C16.3702 1.07188 17.9072 2.00144 19.1682 3.2462C20.4292 4.49096 21.3785 6.01577 21.9391 7.6966C22.4996 9.37744 22.6555 11.1668 22.3941 12.9193C22.1326 14.6717 21.4612 16.3377 20.4344 17.7817L29.4733 26.8201C29.8151 27.174 30.0042 27.648 29.9999 28.14C29.9957 28.6319 29.7983 29.1025 29.4504 29.4504C29.1025 29.7983 28.6319 29.9957 28.1399 29.9999C27.6479 30.0042 27.1739 29.8151 26.82 29.4733L17.783 20.4368C16.0987 21.6344 14.1171 22.3453 12.0555 22.4916C9.99393 22.6379 7.93185 22.2139 6.09524 21.2661C4.25864 20.3183 2.71838 18.8832 1.64324 17.1182C0.568112 15.3531 -0.000401654 13.3262 2.12904e-07 11.2595Z" fill="#6A6464"/>
</svg>
